<svg width="697" height="262" viewBox="0 0 697 262" fill="none" xmlns="http://www.w3.org/2000/svg">
<path d="M322.712 180.656L332 164L321.904 172.125L317.462 169.687L311 190L319.481 179.031L322.712 180.656Z" fill="white"/>
<path d="M372.5 80.5L361 101L373.5 91L379 94L387 69L376.5 82.5L372.5 80.5Z" fill="white"/>
<path d="M372.803 157.518L381 176L371.574 166.143L365.426 167.786L356 153L365.426 159.982L372.803 157.518Z" fill="#407893"/>
<path d="M198.318 67.0511C215.442 82.9793 222.113 107.453 227.561 132.533C233.009 157.613 237.236 183.352 225.502 199.734C213.827 216.118 186.196 223.146 159.898 230.579C133.603 238.062 108.64 246.002 89.124 239.732C69.6667 233.461 55.6563 213.084 37.198 191.392C18.7955 169.749 -4.05431 146.843 0.615427 129.297C5.34105 111.801 37.5321 99.7164 62.9951 85.0526C88.4586 70.439 107.195 53.2974 130.323 48.444C153.507 43.6394 181.138 51.0722 198.318 67.0511Z" fill="white"/>
<path fill-rule="evenodd" clip-rule="evenodd" d="M88.1793 244.674C87.3039 245.081 86.4686 245.57 85.6283 246.045C73.6102 252.839 58.276 244.787 57.3747 230.68L52.5608 205.217C45.8784 169.87 43.5164 133.842 45.5268 97.9249L47.0987 69.8418C46.1957 55.7084 60.4351 45.7604 73.2384 51.0357C74.0852 51.3847 74.9286 51.7462 75.7994 52.0302L91.3564 57.1035C135.839 71.6099 177.75 93.0562 215.536 120.649L217.622 122.172C218.497 122.81 219.438 123.355 220.366 123.914C231.729 130.752 232.697 147.063 222.142 155.181C221.422 155.734 220.694 156.279 220.018 156.884L207.734 167.89C175.091 197.135 138.298 221.387 98.5516 239.855L88.1793 244.674Z" fill="#EDF3F8"/>
<mask id="mask0_892_13322" style="mask-type:alpha" maskUnits="userSpaceOnUse" x="0" y="47" width="233" height="195">
<path d="M198.318 67.0511C215.442 82.9793 222.113 107.453 227.561 132.533C233.009 157.613 237.236 183.352 225.502 199.734C213.827 216.118 186.196 223.146 159.898 230.579C133.603 238.062 108.64 246.002 89.124 239.732C69.6667 233.461 55.6563 213.084 37.198 191.392C18.7955 169.749 -4.05431 146.843 0.615427 129.297C5.34105 111.801 37.5321 99.7164 62.9951 85.0526C88.4586 70.439 107.195 53.2974 130.323 48.444C153.507 43.6394 181.138 51.0722 198.318 67.0511Z" fill="white"/>
</mask>
<g mask="url(#mask0_892_13322)">
<path fill-rule="evenodd" clip-rule="evenodd" d="M137.807 252.918L158.741 337.616H176.008L164.3 174.73L140.526 177.688L137.807 252.918Z" fill="#12364E"/>
<path d="M162.375 191.007L160.952 171.193L137.178 174.151L134.458 249.383L140.832 275.173" fill="#12364E"/>
<path d="M162.375 191.007L160.952 171.193L137.178 174.151L134.458 249.383L140.832 275.173" stroke="#40404B" stroke-linecap="round" stroke-linejoin="round"/>
<path d="M145.6 294.472L155.39 334.079H172.658L166.052 242.183" fill="#12364E"/>
<path d="M145.6 294.472L155.39 334.079H172.658L166.052 242.183" stroke="#40404B" stroke-linecap="round" stroke-linejoin="round"/>
<path fill-rule="evenodd" clip-rule="evenodd" d="M110.095 173.886C110.205 178.289 108.885 340.113 108.885 340.113H127.375C128.806 332.301 150.929 175.868 150.929 175.868C150.929 175.868 109.986 169.482 110.095 173.886Z" fill="#12364E"/>
<path d="M146.739 182.074L148.158 172.058C148.158 172.058 107.214 165.672 107.323 170.075C107.362 171.6 107.515 165.486 107.323 191.5" fill="#12364E"/>
<path d="M146.739 182.074L148.158 172.058C148.158 172.058 107.214 165.672 107.323 170.075C107.362 171.6 107.515 165.486 107.323 191.5" stroke="#40404B" stroke-linecap="round" stroke-linejoin="round"/>
<path d="M130.105 298.903C133.935 272.266 138.994 236.7 142.783 210.006Z" fill="#12364E"/>
<path d="M130.105 298.903C133.935 272.266 138.994 236.7 142.783 210.006" stroke="#40404B" stroke-linecap="round" stroke-linejoin="round"/>
</g>
<path fill-rule="evenodd" clip-rule="evenodd" d="M148.042 86.5893C154.434 77.9769 174.897 92.847 177.56 97.0393C176.09 100.308 167.248 111.776 164.342 113.058C160.009 110.772 140.43 96.8446 148.042 86.5893Z" fill="#407893"/>
<path d="M176.5 99L167 113C167 112.167 166.8 111.5 166 115.5C165.2 119.5 172.667 129.167 176.5 133.5C180 134.5 191.1 137.4 207.5 141C223.9 144.6 233.333 147.167 236 148H244.5C247.3 148 254 144.333 257 142.5C257.833 141.167 259.5 138.1 259.5 136.5C259.5 134.9 256.5 131.833 255 130.5H247.5L236 136.5H227.5L216.5 130.5L184.5 114L180.5 108L179.5 103L176.5 99Z" fill="white"/>
<path d="M165.431 112.394C164.644 113.519 164.109 114.377 163.994 114.763C163.454 116.577 171.852 129.907 172.929 130.945C175.131 135.576 218.499 143.591 222.742 144.36C226.985 145.13 233.009 146.259 235.543 147.944" stroke="#40404B" stroke-linecap="round" stroke-linejoin="round"/>
<path d="M158.571 47.3155C159.237 46.9956 160.205 44.8424 160.205 41.6515C160.205 33.719 154.308 30 144.876 30C138.291 30 130.53 32.514 125.583 41.9527C121.888 48.9667 120.384 64.4524 117.301 70.0234C115.35 73.5453 111.211 80.6782 108.033 87.3872C106.839 89.0905 100.836 102.085 110.002 106.354C119.169 110.623 161.734 108.868 162.866 107.034C163.998 105.201 157.635 92.1066 155.542 89.455C153.449 86.8033 150.446 83.4302 152.157 70.3879C153.867 57.3455 152.32 49.6584 153.787 49.0373C155.254 48.4163 157.034 48.3791 158.571 47.3155Z" fill="#FF9D52"/>
<path fill-rule="evenodd" clip-rule="evenodd" d="M139.735 80.9713C167.898 81.2333 173.407 129.931 164.966 175.16C160.525 178.359 117.879 180.758 110.505 175.782C103.13 170.806 101.532 80.6165 139.735 80.9713Z" fill="#407893"/>
<path d="M86 242.5L117 181.5L228 144.5L257.5 137.5L301 130" stroke="white" stroke-width="5"/>
<path d="M88.5 244.5L119.5 183.5L175 165M224.5 148.5L202.75 155.75M300.5 132.5L267.25 137.25" stroke="#40404B"/>
<path d="M86 239.5L108.5 193.5M231.5 141L174.25 159.75L145.625 169.125" stroke="#40404B"/>
<path d="M121.928 176.31C115.534 175.954 110.322 175.129 108.156 173.667C100.782 168.691 99.1822 78.5015 137.383 78.8563C152.529 78.9979 161.123 93.1488 164.518 113.235" stroke="#40404B" stroke-linecap="round" stroke-linejoin="round"/>
<path d="M166.152 140.982C165.835 151.403 164.618 162.321 162.617 173.043C160.863 174.306 153.152 175.445 144.007 176.054" stroke="#40404B" stroke-linecap="round" stroke-linejoin="round"/>
<path d="M206.212 124.203C215.569 129.592 226.592 135.618 230.305 136.182C232.513 136.621 245.486 132.936 247.901 130.569" stroke="#40404B" stroke-linecap="round" stroke-linejoin="round"/>
<path d="M179.537 102.032C178.568 103.42 180.767 110.454 185.052 112.578C185.412 112.756 196.854 118.823 199.519 120.402" stroke="#40404B" stroke-linecap="round" stroke-linejoin="round"/>
<path d="M242.671 136.077C246.494 135.411 255.017 135.667 257.128 136.869" stroke="#40404B" stroke-linecap="round" stroke-linejoin="round"/>
<path d="M243.513 139.702C246.103 139.702 254.338 140.192 258.703 141.636" stroke="#40404B" stroke-linecap="round" stroke-linejoin="round"/>
<path d="M242.377 143.243C243.71 143.042 249.689 143.73 251.544 144.772" stroke="#40404B" stroke-linecap="round" stroke-linejoin="round"/>
<path d="M240.252 146.249C241.678 146.191 245.712 146.947 247.257 147.896" stroke="#40404B" stroke-linecap="round" stroke-linejoin="round"/>
<path d="M172.514 107.589C175.987 103.371 178.971 98.9341 178.84 96.7617" stroke="#40404B" stroke-linecap="round" stroke-linejoin="round"/>
<path d="M172.075 90.3883C164.221 84.2451 152.661 77.6117 146.505 86.3199C146.259 86.6656 146.032 87.0262 145.826 87.4001" stroke="#40404B" stroke-linecap="round" stroke-linejoin="round"/>
<path fill-rule="evenodd" clip-rule="evenodd" d="M160.876 46.9219C160.876 46.9137 160.889 46.9064 160.906 46.9056C160.923 46.9048 160.938 46.9105 160.938 46.9194C160.938 46.9284 160.925 46.9349 160.908 46.9357C160.891 46.9365 160.877 46.9308 160.876 46.9219Z" fill="#1B3C87"/>
<path fill-rule="evenodd" clip-rule="evenodd" d="M128.509 58.4152C127.923 58.8706 127.219 59.1506 126.48 59.2229C125.741 59.2952 124.996 59.1567 124.332 58.8235C123.668 58.4904 123.112 57.9761 122.729 57.3402C122.345 56.7043 122.149 55.9727 122.163 55.23C122.178 54.4873 122.402 53.7639 122.81 53.1433C123.218 52.5228 123.794 52.0305 124.47 51.7233C125.146 51.4161 125.896 51.3067 126.631 51.4076C127.367 51.5085 128.06 51.8156 128.628 52.2934" fill="white"/>
<path d="M135 57C135 59.2091 133.209 61 131 61C128.791 61 127 59.2091 127 57C127 54.7909 128.791 53 131 53C133.208 53.002 134.998 54.7917 135 57Z" fill="white"/>
<path d="M157.032 40.0111C157.09 43.6845 131.959 47.1612 131.821 52.3781C131.682 57.595 131.599 60.6079 131.599 60.6079C132.498 65.4723 130.55 82.6703 130 84.4662C132.109 86.4662 142.684 86.3214 143.838 85.1118C143.689 83.9022 143.711 75.665 144.013 74.7225C144.457 74.7833 144.905 74.8143 145.353 74.8153C153.441 74.8153 160 65.0902 160 53.0905C160 46.8198 159.898 45.1613 157.039 40" fill="white"/>
<path d="M155 65C152.211 69.8833 147.974 73 143.228 73C140.204 73 137.373 71.728 135 69.5374" stroke="#40404B" stroke-linecap="round" stroke-linejoin="round"/>
<path d="M155 39C156.347 42.8784 157.033 47.1627 156.999 51.4978C157.003 53.6848 156.838 55.8657 156.506 58" stroke="#40404B" stroke-linecap="round" stroke-linejoin="round"/>
<path d="M131 58.2941C129.74 59.3826 128.04 59.1956 126.951 57.8484C125.861 56.5013 125.687 54.3737 126.538 52.7782C127.388 51.1828 129.022 50.569 130.432 51.3157" stroke="#40404B" stroke-linecap="round" stroke-linejoin="round"/>
<path d="M144 51.5018C144 52.3278 143.56 53 142.998 53C142.435 53 142 52.3278 142 51.5018C142 50.6758 142.44 50 142.998 50C143.556 50 144 50.6722 144 51.5018Z" fill="#1D2028"/>
<path d="M151 53C151 54.3442 151 55.6947 151 57" stroke="#40404B" stroke-linecap="round" stroke-linejoin="round"/>
<path d="M140 61C140.107 62.0717 140.894 63.4642 142 64" stroke="#40404B" stroke-linecap="round" stroke-linejoin="round"/>
<path d="M142 84C142 82.7193 142 73.9979 142 73" stroke="#40404B" stroke-linecap="round" stroke-linejoin="round"/>
<path d="M128.127 76C127.722 79.3489 127.235 82.0552 127 82.6876C127.932 83.4152 130.345 83.83 133 84" stroke="#40404B" stroke-linecap="round" stroke-linejoin="round"/>
<path d="M130 59C130 60.963 130 64.8581 130 69" stroke="#40404B" stroke-linecap="round" stroke-linejoin="round"/>
<path d="M152 30C156.425 31.6139 159 35.0362 159 40.4136C159 43.5608 158.108 45.6845 157.491 46" stroke="#40404B" stroke-linecap="round" stroke-linejoin="round"/>
<path d="M119 61C120.6 54.2025 122.047 45.6563 124.454 40.9319C128.966 32.0613 135.878 29.2946 142 29" stroke="#40404B" stroke-linecap="round" stroke-linejoin="round"/>
<path d="M151 80C151.215 81.7439 151.54 83.2053 152 84" stroke="#40404B" stroke-linecap="round" stroke-linejoin="round"/>
<path d="M151 71C151 71.8062 151 74.4031 151 77" stroke="#40404B" stroke-linecap="round" stroke-linejoin="round"/>
<path d="M156 36C156 43.803 130 44.5069 130 51" stroke="#40404B" stroke-linecap="round" stroke-linejoin="round"/>
<path fill-rule="evenodd" clip-rule="evenodd" d="M86.5257 105.306C84.0161 107.999 60.2219 134.214 60.7719 140.36C61.8775 152.635 110.872 169.706 114.321 172.528C118.123 175.724 116.21 176.065 118.049 179.577C119.889 183.088 125.701 184.078 128.636 182.541C131.572 181.003 126.421 178.312 124.832 175.278C123.242 172.245 116.737 168.006 114.477 166.202C112.217 164.398 89.4852 142.534 88.3883 141.351C91.5342 138.706 101.095 129.302 104.621 124.993C108.146 120.684 89.0346 102.614 86.5257 105.306Z" fill="white"/>
<path d="M91.8459 144.328C93.8564 146.233 117.522 163.299 119.461 164.028C121.4 164.757 131.66 166.331 132.355 166.516C133.05 166.702 134.874 168.703 134.717 169.075C133.75 171.358 127.614 170.128 126.707 170.039C128.773 171.227 140.446 179.182 140.447 180.609C148 192 126.831 191.336 121.928 186.438C120.584 185.099 114.436 177.382 113.432 176.773C112.427 176.165 69.8157 149.002 68.9613 148.361C70.9475 147.226 89.8358 142.419 91.8459 144.328Z" fill="white"/>
<path d="M86.5711 140.23C89.7085 137.57 100.849 126.676 104.355 122.329C107.86 117.983 88.5145 99.4721 86.0174 102.187C83.5203 104.902 59.8402 131.331 60.4433 137.578C60.6987 140.209 63.0932 143.071 66.747 145.982" stroke="#40404B" stroke-linecap="round" stroke-linejoin="round"/>
<path d="M98.3791 122.755C90.9856 117.828 81.3555 106.259 82.0645 102.731C82.3013 101.539 84.6256 99.1954 88.1194 96.52" stroke="#40404B" stroke-linecap="round" stroke-linejoin="round"/>
<path d="M86.655 140.045C88.8433 142.23 98.6968 151.478 120.26 162.108C122.876 163.398 132.116 163.995 133.776 165.01C135.436 166.025 136.398 166.746 135.754 167.866C135.109 168.986 130.094 168.963 127.131 167.905C131.718 170.214 139.824 176.496 141.698 179.029" stroke="#40404B" stroke-linecap="round" stroke-linejoin="round"/>
<path d="M88.9963 158.681C80.3325 153.295 72.4494 148.435 71.0307 147.59" stroke="#40404B" stroke-linecap="round" stroke-linejoin="round"/>
<path d="M123.822 184.682C121.134 182.012 116.692 176.468 113.627 174.225C112.752 173.584 109.076 171.306 104.194 168.334" stroke="#40404B" stroke-linecap="round" stroke-linejoin="round"/>
<path d="M128.024 172.365C129.137 173.122 132.248 175.577 135.149 178.086C137.848 180.416 140.361 182.793 140.925 183.9" stroke="#40404B" stroke-linecap="round" stroke-linejoin="round"/>
<path d="M125.701 175.991C126.863 176.733 130.108 179.146 133.129 181.617C135.936 183.912 138.551 186.258 139.128 187.36" stroke="#40404B" stroke-linecap="round" stroke-linejoin="round"/>
<path d="M122.353 178.207C123.38 178.868 126.25 181.018 128.922 183.218C131.405 185.262 133.716 187.351 134.229 188.331" stroke="#40404B" stroke-linecap="round" stroke-linejoin="round"/>
<path fill-rule="evenodd" clip-rule="evenodd" d="M121.225 86.8963C131.175 96.6802 108.339 120.378 102.458 123.056C98.5099 120.576 85.3211 107.122 84.1911 103.147C87.9143 97.9742 109.377 75.2466 121.225 86.8963Z" fill="#407893"/>
<path d="M105.784 86.1369C113.096 83.1188 120.308 81.8631 124.382 85.1538C133.195 92.2739 119.329 112.672 110.055 121.153" stroke="#40404B" stroke-linecap="round" stroke-linejoin="round"/>
<path d="M278.109 130.794L301.095 127.069" stroke="#40404B"/>
<ellipse cx="324.626" cy="130.409" rx="5.90585" ry="17.559" transform="rotate(-0.90244 324.626 130.409)" fill="white"/>
<ellipse cx="360.817" cy="130.383" rx="5.90585" ry="17.559" transform="rotate(179.098 360.817 130.383)" fill="white"/>
<path d="M300.639 131.145C300.291 123.68 306.06 117.346 313.524 116.998L323.779 116.519L325.042 143.551L314.787 144.03C307.322 144.379 300.988 138.61 300.639 131.145V131.145Z" fill="white"/>
<path d="M384.803 129.647C385.152 137.112 379.383 143.446 371.918 143.795L361.663 144.274L360.401 117.241L370.656 116.762C378.12 116.414 384.454 122.182 384.803 129.647V129.647Z" fill="white"/>
<path d="M320.092 116.52L313.606 116.878C306.077 117.294 300.292 123.701 300.643 131.233V131.233C300.992 138.696 307.241 144.511 314.709 144.323L320.812 144.169" stroke="#40404B"/>
<path d="M365.35 144.272L371.836 143.914C379.365 143.498 385.151 137.091 384.799 129.559V129.559C384.45 122.097 378.201 116.281 370.733 116.469L364.63 116.623" stroke="#40404B"/>
<ellipse cx="324.713" cy="130.264" rx="6.44441" ry="18.1645" transform="rotate(-0.90244 324.713 130.264)" stroke="#40404B" stroke-linecap="round" stroke-linejoin="round"/>
<ellipse cx="360.73" cy="130.529" rx="6.44441" ry="18.1645" transform="rotate(179.098 360.73 130.529)" stroke="#40404B" stroke-linecap="round" stroke-linejoin="round"/>
<ellipse cx="358.497" cy="125.335" rx="1.08338" ry="3.05367" transform="rotate(179.098 358.497 125.335)" fill="#A6B3FF" stroke="#40404B" stroke-linecap="round" stroke-linejoin="round"/>
<ellipse cx="358.497" cy="135.335" rx="1.08338" ry="3.05367" transform="rotate(179.098 358.497 135.335)" fill="#A6B3FF" stroke="#40404B" stroke-linecap="round" stroke-linejoin="round"/>
<path d="M326.658 147.478C324.074 147.519 321.857 139.833 321.707 130.311C321.557 120.789 323.531 113.037 326.115 112.996" stroke="#40404B" stroke-linecap="round" stroke-linejoin="round"/>
<path d="M358.784 113.314C361.369 113.273 363.585 120.959 363.735 130.481C363.885 140.003 361.912 147.755 359.327 147.796" stroke="#40404B" stroke-linecap="round" stroke-linejoin="round"/>
<path fill-rule="evenodd" clip-rule="evenodd" d="M342.838 135.251C342.888 136.355 342.033 137.29 340.93 137.339L326.349 137.991C326.279 137.994 326.216 137.949 326.195 137.882V137.882C325.834 136.701 325.769 135.449 326.006 134.236L326.027 134.126C326.041 134.052 326.105 133.998 326.18 133.995L340.751 133.343C341.854 133.294 342.789 134.148 342.838 135.251Z" fill="#407893" stroke="#40404B"/>
<path fill-rule="evenodd" clip-rule="evenodd" d="M342.577 124.124C342.626 125.228 341.772 126.162 340.668 126.211L326.088 126.863C326.018 126.867 325.955 126.822 325.934 126.755V126.755C325.573 125.573 325.508 124.321 325.744 123.109L325.766 122.999C325.78 122.925 325.843 122.87 325.918 122.867L340.489 122.215C341.593 122.166 342.527 123.021 342.577 124.124Z" fill="#407893" stroke="#40404B"/>
<path d="M588.64 32.3087C601.898 34.4261 625.237 51.3947 635.249 59.6144C649.682 72.088 652.354 94.5144 651.885 104.168C652.395 119.496 663.55 150.16 648.366 173.265C633.182 196.37 612.366 212.265 612.366 212.265L610.141 213.685C596.045 222.682 580.981 231.15 564.38 233.172C559.227 233.8 552.528 234.342 543.366 234.765C502.802 236.637 499.588 219.896 493.866 196.265C489.289 177.36 481.752 174.765 491.147 158.173C504.326 134.899 531.815 81.1466 536.336 52.3334C541.988 16.3169 572.067 29.6619 588.64 32.3087Z" fill="white"/>
<path fill-rule="evenodd" clip-rule="evenodd" d="M485.499 201.838C473.23 195.83 464.906 183.943 463.455 170.36V170.36C460.562 143.295 467.015 116.054 481.742 93.1629L495.277 72.1233C510.777 47.1234 547.777 35.1234 569.777 61.1234L595.715 93.4056L634.607 158.564C635.185 159.533 635.87 160.436 636.534 161.349C644.704 172.585 638.985 190.225 625.42 194.525C625.051 194.642 624.684 194.773 624.331 194.932L602.378 204.846C565.888 221.324 523.95 220.669 487.993 203.059L485.499 201.838Z" fill="#EDF3F8"/>
<path fill-rule="evenodd" clip-rule="evenodd" d="M540.366 136.301C540.322 132.396 535.342 123.827 533.548 124.14C531.755 124.453 520.178 130.558 516.499 132.487C512.82 134.415 470.248 133.042 465.004 132.89C459.761 132.737 458.127 127.984 451.781 124.754C450.605 124.156 446.79 122.264 442.426 122.264C440.863 122.264 439.715 122.71 439.616 124.754C439.582 125.442 447.372 126.487 447.414 127.245C447.558 129.839 441.936 131.5 440.551 134.405C439.396 136.83 438.393 136.869 438.368 137.518C438.188 141.98 450.21 139.546 453.028 140.32C455.846 141.095 511.314 155.149 514.689 155.262C518.063 155.376 533.916 147.692 535.297 145.428C536.677 143.163 540.411 140.205 540.366 136.301Z" fill="white"/>
<path d="M406.353 127.568L383.09 126.531" stroke="#40404B"/>
<path d="M536.366 110.264C538.896 109.236 541.501 108.393 543.366 108.264" stroke="#40404B" stroke-linecap="round" stroke-linejoin="round"/>
<path d="M532.366 132.264C530.375 128.335 527.565 121.087 528.581 119.364C528.831 118.941 529.451 118.184 530.3 117.264" stroke="#40404B" stroke-linecap="round" stroke-linejoin="round"/>
<path fill-rule="evenodd" clip-rule="evenodd" d="M537.41 139.168C535.797 137.292 529.123 122.574 530.57 120.316C532.017 118.057 544.748 107.084 552.366 108.368C550.321 114.67 539.02 141.044 537.41 139.168Z" fill="#407893"/>
<path d="M478.366 131.259C470.608 131.28 464.532 131.234 463.663 131.085C461.195 130.666 450.459 123.301 447.323 122.689C444.187 122.076 439.928 122.002 439.484 123.301C438.857 125.139 440.877 126.182 441.993 126.364C443.874 126.67 446.069 126.67 447.637 128.201" stroke="#40404B" stroke-linecap="round" stroke-linejoin="round"/>
<path d="M529.366 123.264C525.019 125.446 518.207 128.901 515.24 130.771C512.889 130.957 504.137 131.141 494.366 131.264" stroke="#40404B" stroke-linecap="round" stroke-linejoin="round"/>
<path d="M437.366 138.264C441.724 142.243 449.198 139.658 451.995 140.407C454.793 141.155 509.493 153.155 512.839 153.262C516.185 153.37 529.999 146.872 531.366 144.68" stroke="#40404B" stroke-linecap="round" stroke-linejoin="round"/>
<path d="M557.273 106.93C555.107 104.772 541.866 123.264 541.866 123.264L538.629 131.007C537.276 135.729 539.306 161.45 540.659 169.545C541.742 176.021 546.974 192.93 549.455 200.575C551.711 200.8 559.605 200.575 573.138 197.877C586.671 195.179 599.077 190.007 603.588 187.758L598.851 162.799L591.408 132.444C590.366 126.264 587.366 119.264 587.366 119.264C585.866 116.764 583.366 113.264 580.582 110.183C579.499 108.564 576.071 105.911 574.492 104.786L573.815 110.183C572.191 111.262 565.47 111.082 562.312 110.857L561.635 105.461L557.273 106.93Z" fill="#407893"/>
<path d="M585.308 60.9308C585.843 70.6397 584.172 77.1135 583.269 79.1368L579.211 80.4875L578.541 69.0256L558.935 64.3172L556.905 66.3411L555.553 65.6676C554.203 62.9714 554.225 59.5196 554.882 56.9027C555.56 54.2054 557.588 55.1032 558.94 55.5519C558.941 53.9787 558.585 49.8413 560.297 48.1344C562.326 46.1105 563.902 49.4808 565.028 51.5029C564.354 47.4578 565.808 45.5924 569.09 43.4096C571.119 42.0599 573.371 45.4299 574.496 48.1262C574.496 48.1262 577.882 41.0925 579.909 43.4034C581.485 45.2005 584.772 51.2219 585.308 60.9308Z" fill="#FF9D52"/>
<path d="M604.264 188.433L612.384 212.718C604.806 224.59 574.04 232.28 559.605 234.304C556.448 224.185 550.132 205.297 550.132 202.599C561.5 207.456 590.957 194.504 604.264 188.433Z" fill="#12364E"/>
<path d="M582.866 222.265L544.366 154.765L457.712 135.378L427.6 131.842L383.524 129.432" stroke="white" stroke-width="5"/>
<path d="M571.866 208.765L543.866 156.765L512.73 149.6M384.31 131.857L417.887 132.723L440.366 134.765L461.652 138.945L484.096 143.627" stroke="#40404B"/>
<path d="M530.366 148.765C535.366 149.931 545.666 152.565 546.866 153.765C548.066 154.965 562.699 181.931 569.866 195.265" stroke="#40404B"/>
<path d="M577.327 81.4393H584.595V89.1064H577.327V81.4393Z" fill="white"/>
<path d="M543.319 121.417C547.098 114.424 553.052 108.961 561.739 105.63M574.486 104.779C576.933 106.028 579.2 108.214 581.302 111.103M591.522 133.397C597.757 152.651 601.652 176.274 604.132 188.263C599.434 191.953 557.76 203.021 549.466 200.27C541.516 178.184 536.265 155.636 538.438 137.716" stroke="#1D2028" stroke-width="1.00299" stroke-linecap="round" stroke-linejoin="round"/>
<path d="M612.14 212.047C611.039 209.531 605.183 193.544 604.132 188.261" stroke="#31314D" stroke-width="1.00299" stroke-linecap="round" stroke-linejoin="round"/>
<path d="M581.953 223.334C580.191 221.824 573.299 212.414 570.37 208.167" stroke="#31314D" stroke-width="1.00299" stroke-linecap="round" stroke-linejoin="round"/>
<path d="M558.309 233.397C557.287 231.025 550.369 206.123 549.466 200.28" stroke="#1D2028" stroke-width="1.00299" stroke-linecap="round" stroke-linejoin="round"/>
<path d="M575.376 116.573C565.879 126.416 588.211 151.688 591.014 151.658C593.818 151.628 611.904 133.749 611.001 131.003C610.098 128.257 587.473 104.027 575.376 116.573Z" fill="#407893"/>
<path d="M577.972 131.951C582.711 140.599 590.41 148.481 591.984 148.457C594.782 148.413 612.909 130.606 612.022 127.888C611.762 127.088 609.642 124.463 606.465 121.468" stroke="#40404B" stroke-linecap="round" stroke-linejoin="round"/>
<path d="M593.353 112.997C587.39 110.459 580.978 109.964 575.981 114.851C575.575 115.244 575.211 115.676 574.895 116.138" stroke="#40404B" stroke-linecap="round" stroke-linejoin="round"/>
<path d="M565.723 212.057C563.867 207.183 562.625 201.621 572.353 196.962C573.076 195.222 594.182 174.663 607.107 162.638C603.384 159.881 595.332 149.721 594.679 148.75C595.683 147.94 609.413 133.95 609.413 133.95C609.413 133.95 632.029 159.696 631.845 162.957C625.821 173.886 593.507 196.703 577.277 203.93C576.651 205.394 577.095 205.865 575.661 206.92C574.227 207.974 565.723 212.057 565.723 212.057Z" fill="white"/>
<path d="M586.151 179.934C578.677 187.315 572.679 193.477 572.31 194.407C562.587 199.055 563.861 204.662 565.762 209.617" stroke="#40404B" stroke-linecap="round" stroke-linejoin="round"/>
<path d="M595.637 146.678C596.284 147.63 604.311 157.787 608.021 160.564C603.563 164.717 598.123 169.902 592.904 174.985" stroke="#40404B" stroke-linecap="round" stroke-linejoin="round"/>
<path d="M571.886 200.977C572.792 202.674 573.736 204.441 574.675 206.199" stroke="#40404B" stroke-linecap="round" stroke-linejoin="round"/>
<path d="M568.753 202.65C569.659 204.346 570.603 206.115 571.542 207.872" stroke="#40404B" stroke-linecap="round" stroke-linejoin="round"/>
<path d="M566.664 203.766C567.57 205.463 568.515 207.231 569.453 208.988" stroke="#40404B" stroke-linecap="round" stroke-linejoin="round"/>
<path d="M628.706 153.177C631.545 156.901 633.452 159.8 633.076 160.449C624.446 175.753 585.626 198.16 577.692 201.795" stroke="#40404B" stroke-linecap="round" stroke-linejoin="round"/>
<path d="M610.289 132.14C610.716 132.56 615.214 137.411 620.116 142.999" stroke="#40404B" stroke-linecap="round" stroke-linejoin="round"/>
<path d="M580.832 44.5254C579.88 40.8963 575.859 40.1249 573.83 47.7781C572.949 45.0969 571.11 41.2866 569.192 41.2866C567.993 41.2866 566.328 42.5924 565.044 44.9715" stroke="#1D2028" stroke-width="1.02759" stroke-linecap="round" stroke-linejoin="round"/>
<path d="M561.507 100.577C561.831 97.5936 562.025 94.7034 561.873 93.163M578.499 88.3002C577.568 91.5924 574.495 102.498 574.401 110.063C573.489 110.635 569.379 111.004 565.71 110.721" stroke="#1D2028" stroke-width="1.00299" stroke-linecap="round" stroke-linejoin="round"/>
<path d="M569.341 95.6095C567.823 95.9251 566.26 95.9116 564.747 95.57C560.848 94.6871 557.765 91.7225 555.952 87.6705" stroke="#1D2028" stroke-width="1.02759" stroke-linecap="round" stroke-linejoin="round"/>
<path d="M554.379 82.0456C554.005 79.2613 554.105 76.4287 554.675 73.6815C555.244 70.891 556.235 68.3457 557.53 66.15" stroke="#1D2028" stroke-width="1.02759" stroke-linecap="round" stroke-linejoin="round"/>
<path d="M563.262 76.5322C562.961 77.8101 561.126 79.9243 560.197 80.3054" stroke="#1D2028" stroke-width="1.02759" stroke-linecap="round" stroke-linejoin="round"/>
<path d="M569.628 76.9207L570.738 73.9164L572.448 74.5428L571.338 77.5471L569.628 76.9207Z" fill="#31314D"/>
<path d="M568.418 86.2208C568.064 87.0456 565.932 88.9554 564.795 89.1041" stroke="#31314D" stroke-width="1.02759" stroke-linecap="round" stroke-linejoin="round"/>
<path d="M578.768 68.8418C578.281 71.3832 577.923 73.9503 577.697 76.5321" stroke="#31314D" stroke-width="1.02759" stroke-linecap="round" stroke-linejoin="round"/>
<path d="M563.348 50.3687C563.082 48.5332 561.52 46.4189 560.628 46.4189C559.736 46.4189 557.595 46.5607 557.686 54.3695C556.972 53.4286 555.41 52.864 554.602 52.864C552.946 52.864 550.622 61.2537 557.223 66.6764C557.593 65.9376 558.63 64.3763 558.692 64.3763C559.69 64.662 567.81 66.8019 574.625 68.1285" stroke="#1D2028" stroke-width="1.02759" stroke-linecap="round" stroke-linejoin="round"/>
<path d="M583.772 78.7068C585.197 74.4771 585.846 70.0003 585.686 65.5147C585.583 62.1737 584.144 57.0321 582.887 52.8756" stroke="#1D2028" stroke-width="1.02759" stroke-linecap="round" stroke-linejoin="round"/>
<path d="M579.221 80.5005C580.754 79.9624 582.44 80.5564 583.358 81.9583C584.277 83.3602 584.208 85.2335 583.189 86.5559C582.17 87.8783 580.446 88.3324 578.957 87.6704" stroke="#1D2028" stroke-width="1.02759" stroke-linecap="round" stroke-linejoin="round"/>
<path d="M432.866 129.765L450.366 132.265L529.866 148.265" stroke="#40404B"/>
<path d="M298 90L288 67.5L299.5 79.5L307 77.5L318.5 95.5L307 87L298 90Z" stroke="#40404B"/>
<path d="M299 87L289 64.5L300.5 76.5L308 74.5L319.5 92.5L308 84L299 87Z" fill="#407893"/>
<path d="M369.803 159.518L378 178L368.574 168.143L362.426 169.786L353 155L362.426 161.982L369.803 159.518Z" stroke="#40404B"/>
<path d="M372.5 76.5L361 97L373.5 87L379 90L387 65L376.5 78.5L372.5 76.5Z" stroke="#40404B"/>
<path d="M321.712 176.656L331 160L320.904 168.125L316.462 165.687L310 186L318.481 175.031L321.712 176.656Z" stroke="#40404B"/>
<path d="M333 97L323 84M342 97L339 67M349.5 95.5L357.5 77.5" stroke="#40404B"/>
<path d="M350.445 170.581L358.045 180.248M343.697 170.653L346.185 193.12M338.087 171.837L332.232 185.396" stroke="#40404B"/>
</svg>
